<?xml version="1.0" encoding="utf-8"?>
<svg viewBox="0 0 512 512" xmlns="http://www.w3.org/2000/svg">
  <path d="M 457 13.7 L 498.3 55 C 507.1 63.8 512 75.6 512 88 C 512 100.4 507 112.3 498.3 121 L 340.8 278.4 C 330.3 288.9 318.7 298.2 306.2 306.1 L 190.4 379.2 C 178.8 386.5 168.1 395.1 158.5 404.7 L 121.2 442 L 69.9 390.7 L 107.2 353.5 C 116.9 343.8 125.4 333.1 132.7 321.6 L 205.8 205.8 C 213.7 193.3 223 181.7 233.5 171.2 L 391 13.7 C 399.8 4.9 411.6 0 424 0 C 436.4 0 448.2 4.9 457 13.7 Z M 432 512 C 387.817 512 352 476.183 352 432 C 352 387.817 387.817 352 432 352 C 476.183 352 512 387.817 512 432 C 512 476.183 476.183 512 432 512 Z M 15.1 399 C 24.4 389.6 39.6 389.6 49 399 L 112.9 463 C 122.3 472.3 122.2 487.5 112.9 496.9 C 103.6 506.3 88.4 506.3 79 496.9 L 15 432.9 C 5.6 423.6 5.6 408.4 15 399 Z" style="fill: rgb(255, 255, 255);"/>
</svg>